<mxfile host="Electron" agent="Mozilla/5.0 (Windows NT 10.0; Win64; x64) AppleWebKit/537.36 (KHTML, like Gecko) draw.io/24.7.17 Chrome/128.0.6613.36 Electron/32.0.1 Safari/537.36" version="24.7.17">
  <diagram name="Page-1" id="3Y0QFkgbiZ94lDn6XGw3">
    <mxGraphModel dx="2785" dy="2366" grid="1" gridSize="10" guides="1" tooltips="1" connect="1" arrows="1" fold="1" page="1" pageScale="1" pageWidth="827" pageHeight="1169" math="0" shadow="0">
      <root>
        <mxCell id="0" />
        <mxCell id="1" parent="0" />
        <mxCell id="d5EWRhAifgeRGTB-wiOk-1" value="User" style="shape=umlActor;verticalLabelPosition=bottom;verticalAlign=top;html=1;" parent="1" vertex="1">
          <mxGeometry x="40" y="180" width="30" height="60" as="geometry" />
        </mxCell>
        <mxCell id="d5EWRhAifgeRGTB-wiOk-19" value="Manage Categories" style="ellipse;whiteSpace=wrap;html=1;" parent="1" vertex="1">
          <mxGeometry x="310" y="200" width="140" height="70" as="geometry" />
        </mxCell>
        <mxCell id="d5EWRhAifgeRGTB-wiOk-20" value="Create Category" style="ellipse;whiteSpace=wrap;html=1;" parent="1" vertex="1">
          <mxGeometry x="414" y="30" width="140" height="70" as="geometry" />
        </mxCell>
        <mxCell id="d5EWRhAifgeRGTB-wiOk-21" value="Update Category" style="ellipse;whiteSpace=wrap;html=1;" parent="1" vertex="1">
          <mxGeometry x="580" y="100" width="140" height="70" as="geometry" />
        </mxCell>
        <mxCell id="d5EWRhAifgeRGTB-wiOk-22" value="Delete Category" style="ellipse;whiteSpace=wrap;html=1;" parent="1" vertex="1">
          <mxGeometry x="620" y="200" width="140" height="70" as="geometry" />
        </mxCell>
        <mxCell id="d5EWRhAifgeRGTB-wiOk-23" value="List Categories" style="ellipse;whiteSpace=wrap;html=1;" parent="1" vertex="1">
          <mxGeometry x="550" y="300" width="140" height="70" as="geometry" />
        </mxCell>
        <mxCell id="d5EWRhAifgeRGTB-wiOk-24" value="Get Category" style="ellipse;whiteSpace=wrap;html=1;" parent="1" vertex="1">
          <mxGeometry x="380" y="360" width="140" height="70" as="geometry" />
        </mxCell>
        <mxCell id="d5EWRhAifgeRGTB-wiOk-25" value="&amp;lt;&amp;lt;include&amp;gt;&amp;gt;" style="html=1;verticalAlign=bottom;labelBackgroundColor=none;endArrow=open;endFill=0;dashed=1;rounded=0;exitX=0.5;exitY=0;exitDx=0;exitDy=0;entryX=0.5;entryY=1;entryDx=0;entryDy=0;" parent="1" source="d5EWRhAifgeRGTB-wiOk-19" target="d5EWRhAifgeRGTB-wiOk-20" edge="1">
          <mxGeometry width="160" relative="1" as="geometry">
            <mxPoint x="430" y="200" as="sourcePoint" />
            <mxPoint x="590" y="200" as="targetPoint" />
          </mxGeometry>
        </mxCell>
        <mxCell id="d5EWRhAifgeRGTB-wiOk-26" value="&amp;lt;&amp;lt;include&amp;gt;&amp;gt;" style="html=1;verticalAlign=bottom;labelBackgroundColor=none;endArrow=open;endFill=0;dashed=1;rounded=0;exitX=1;exitY=0;exitDx=0;exitDy=0;entryX=0;entryY=1;entryDx=0;entryDy=0;" parent="1" source="d5EWRhAifgeRGTB-wiOk-19" target="d5EWRhAifgeRGTB-wiOk-21" edge="1">
          <mxGeometry width="160" relative="1" as="geometry">
            <mxPoint x="390" y="210" as="sourcePoint" />
            <mxPoint x="470" y="140" as="targetPoint" />
          </mxGeometry>
        </mxCell>
        <mxCell id="d5EWRhAifgeRGTB-wiOk-27" value="&amp;lt;&amp;lt;include&amp;gt;&amp;gt;" style="html=1;verticalAlign=bottom;labelBackgroundColor=none;endArrow=open;endFill=0;dashed=1;rounded=0;exitX=1;exitY=0.5;exitDx=0;exitDy=0;entryX=0;entryY=0.5;entryDx=0;entryDy=0;" parent="1" source="d5EWRhAifgeRGTB-wiOk-19" target="d5EWRhAifgeRGTB-wiOk-22" edge="1">
          <mxGeometry width="160" relative="1" as="geometry">
            <mxPoint x="439" y="220" as="sourcePoint" />
            <mxPoint x="561" y="190" as="targetPoint" />
          </mxGeometry>
        </mxCell>
        <mxCell id="d5EWRhAifgeRGTB-wiOk-28" value="&amp;lt;&amp;lt;include&amp;gt;&amp;gt;" style="html=1;verticalAlign=bottom;labelBackgroundColor=none;endArrow=open;endFill=0;dashed=1;rounded=0;exitX=1;exitY=1;exitDx=0;exitDy=0;entryX=0;entryY=0;entryDx=0;entryDy=0;" parent="1" source="d5EWRhAifgeRGTB-wiOk-19" target="d5EWRhAifgeRGTB-wiOk-23" edge="1">
          <mxGeometry width="160" relative="1" as="geometry">
            <mxPoint x="460" y="245" as="sourcePoint" />
            <mxPoint x="600" y="245" as="targetPoint" />
          </mxGeometry>
        </mxCell>
        <mxCell id="d5EWRhAifgeRGTB-wiOk-29" value="&amp;lt;&amp;lt;include&amp;gt;&amp;gt;" style="html=1;verticalAlign=bottom;labelBackgroundColor=none;endArrow=open;endFill=0;dashed=1;rounded=0;exitX=0.5;exitY=1;exitDx=0;exitDy=0;entryX=0.5;entryY=0;entryDx=0;entryDy=0;" parent="1" source="d5EWRhAifgeRGTB-wiOk-19" target="d5EWRhAifgeRGTB-wiOk-24" edge="1">
          <mxGeometry width="160" relative="1" as="geometry">
            <mxPoint x="439" y="270" as="sourcePoint" />
            <mxPoint x="541" y="290" as="targetPoint" />
          </mxGeometry>
        </mxCell>
        <mxCell id="d5EWRhAifgeRGTB-wiOk-30" value="" style="endArrow=none;startArrow=none;endFill=0;startFill=0;endSize=8;html=1;verticalAlign=bottom;labelBackgroundColor=none;strokeWidth=3;rounded=0;exitX=0.5;exitY=0.5;exitDx=0;exitDy=0;exitPerimeter=0;entryX=0;entryY=0.5;entryDx=0;entryDy=0;" parent="1" source="d5EWRhAifgeRGTB-wiOk-1" target="d5EWRhAifgeRGTB-wiOk-19" edge="1">
          <mxGeometry width="160" relative="1" as="geometry">
            <mxPoint x="180" y="310" as="sourcePoint" />
            <mxPoint x="340" y="310" as="targetPoint" />
          </mxGeometry>
        </mxCell>
        <mxCell id="d5EWRhAifgeRGTB-wiOk-32" value="" style="endArrow=none;startArrow=none;endFill=0;startFill=0;endSize=8;html=1;verticalAlign=bottom;labelBackgroundColor=none;strokeWidth=3;rounded=0;exitX=0.5;exitY=0.5;exitDx=0;exitDy=0;exitPerimeter=0;entryX=1;entryY=0.5;entryDx=0;entryDy=0;" parent="1" source="d5EWRhAifgeRGTB-wiOk-1" target="d5EWRhAifgeRGTB-wiOk-31" edge="1">
          <mxGeometry width="160" relative="1" as="geometry">
            <mxPoint x="115" y="250" as="sourcePoint" />
            <mxPoint x="320" y="245" as="targetPoint" />
          </mxGeometry>
        </mxCell>
        <mxCell id="d5EWRhAifgeRGTB-wiOk-46" value="Control Cashflow" style="ellipse;whiteSpace=wrap;html=1;" parent="1" vertex="1">
          <mxGeometry x="-40" y="450" width="140" height="70" as="geometry" />
        </mxCell>
        <mxCell id="d5EWRhAifgeRGTB-wiOk-49" value="" style="endArrow=none;startArrow=none;endFill=0;startFill=0;endSize=8;html=1;verticalAlign=bottom;labelBackgroundColor=none;strokeWidth=3;rounded=0;exitX=0.5;exitY=0.5;exitDx=0;exitDy=0;exitPerimeter=0;entryX=0.5;entryY=0;entryDx=0;entryDy=0;" parent="1" source="d5EWRhAifgeRGTB-wiOk-1" target="d5EWRhAifgeRGTB-wiOk-46" edge="1">
          <mxGeometry width="160" relative="1" as="geometry">
            <mxPoint x="115" y="250" as="sourcePoint" />
            <mxPoint x="320" y="245" as="targetPoint" />
          </mxGeometry>
        </mxCell>
        <mxCell id="d5EWRhAifgeRGTB-wiOk-53" value="Financial Boundary" style="shape=umlFrame;whiteSpace=wrap;html=1;pointerEvents=0;recursiveResize=0;container=1;collapsible=0;width=160;" parent="1" vertex="1">
          <mxGeometry x="280" y="-20" width="510" height="470" as="geometry" />
        </mxCell>
        <mxCell id="d5EWRhAifgeRGTB-wiOk-54" value="Financial Distribution" style="shape=umlFrame;whiteSpace=wrap;html=1;pointerEvents=0;recursiveResize=0;container=1;collapsible=0;width=160;" parent="1" vertex="1">
          <mxGeometry x="-910" y="55" width="560" height="450" as="geometry" />
        </mxCell>
        <mxCell id="d5EWRhAifgeRGTB-wiOk-33" value="Create Bank Account" style="ellipse;whiteSpace=wrap;html=1;" parent="d5EWRhAifgeRGTB-wiOk-54" vertex="1">
          <mxGeometry x="370" y="30" width="140" height="70" as="geometry" />
        </mxCell>
        <mxCell id="d5EWRhAifgeRGTB-wiOk-38" value="Update Bank Account" style="ellipse;whiteSpace=wrap;html=1;" parent="d5EWRhAifgeRGTB-wiOk-54" vertex="1">
          <mxGeometry x="150" y="40" width="140" height="70" as="geometry" />
        </mxCell>
        <mxCell id="d5EWRhAifgeRGTB-wiOk-40" value="Delete Bank Account" style="ellipse;whiteSpace=wrap;html=1;" parent="d5EWRhAifgeRGTB-wiOk-54" vertex="1">
          <mxGeometry x="10" y="150" width="140" height="70" as="geometry" />
        </mxCell>
        <mxCell id="d5EWRhAifgeRGTB-wiOk-42" value="List Categories" style="ellipse;whiteSpace=wrap;html=1;" parent="d5EWRhAifgeRGTB-wiOk-54" vertex="1">
          <mxGeometry x="100" y="290" width="140" height="70" as="geometry" />
        </mxCell>
        <mxCell id="d5EWRhAifgeRGTB-wiOk-44" value="Get Category" style="ellipse;whiteSpace=wrap;html=1;" parent="d5EWRhAifgeRGTB-wiOk-54" vertex="1">
          <mxGeometry x="370" y="360" width="140" height="70" as="geometry" />
        </mxCell>
        <mxCell id="d5EWRhAifgeRGTB-wiOk-31" value="Manage Bank Accounts" style="ellipse;whiteSpace=wrap;html=1;" parent="d5EWRhAifgeRGTB-wiOk-54" vertex="1">
          <mxGeometry x="370" y="160" width="140" height="70" as="geometry" />
        </mxCell>
        <mxCell id="d5EWRhAifgeRGTB-wiOk-35" value="&amp;lt;&amp;lt;include&amp;gt;&amp;gt;" style="html=1;verticalAlign=bottom;labelBackgroundColor=none;endArrow=open;endFill=0;dashed=1;rounded=0;exitX=0.5;exitY=0;exitDx=0;exitDy=0;entryX=0.5;entryY=1;entryDx=0;entryDy=0;" parent="d5EWRhAifgeRGTB-wiOk-54" source="d5EWRhAifgeRGTB-wiOk-31" target="d5EWRhAifgeRGTB-wiOk-33" edge="1">
          <mxGeometry width="160" relative="1" as="geometry">
            <mxPoint x="1160" y="210" as="sourcePoint" />
            <mxPoint x="1264" y="110" as="targetPoint" />
          </mxGeometry>
        </mxCell>
        <mxCell id="d5EWRhAifgeRGTB-wiOk-39" value="&amp;lt;&amp;lt;include&amp;gt;&amp;gt;" style="html=1;verticalAlign=bottom;labelBackgroundColor=none;endArrow=open;endFill=0;dashed=1;rounded=0;exitX=0;exitY=0.5;exitDx=0;exitDy=0;entryX=1;entryY=1;entryDx=0;entryDy=0;" parent="d5EWRhAifgeRGTB-wiOk-54" source="d5EWRhAifgeRGTB-wiOk-31" target="d5EWRhAifgeRGTB-wiOk-38" edge="1">
          <mxGeometry width="160" relative="1" as="geometry">
            <mxPoint x="450" y="160" as="sourcePoint" />
            <mxPoint x="450" y="60" as="targetPoint" />
          </mxGeometry>
        </mxCell>
        <mxCell id="d5EWRhAifgeRGTB-wiOk-41" value="&amp;lt;&amp;lt;include&amp;gt;&amp;gt;" style="html=1;verticalAlign=bottom;labelBackgroundColor=none;endArrow=open;endFill=0;dashed=1;rounded=0;exitX=0;exitY=0.5;exitDx=0;exitDy=0;entryX=1;entryY=0.5;entryDx=0;entryDy=0;" parent="d5EWRhAifgeRGTB-wiOk-54" source="d5EWRhAifgeRGTB-wiOk-31" target="d5EWRhAifgeRGTB-wiOk-40" edge="1">
          <mxGeometry width="160" relative="1" as="geometry">
            <mxPoint x="380" y="195" as="sourcePoint" />
            <mxPoint x="180" y="70" as="targetPoint" />
          </mxGeometry>
        </mxCell>
        <mxCell id="d5EWRhAifgeRGTB-wiOk-43" value="&amp;lt;&amp;lt;include&amp;gt;&amp;gt;" style="html=1;verticalAlign=bottom;labelBackgroundColor=none;endArrow=open;endFill=0;dashed=1;rounded=0;exitX=0;exitY=1;exitDx=0;exitDy=0;entryX=1;entryY=0;entryDx=0;entryDy=0;" parent="d5EWRhAifgeRGTB-wiOk-54" source="d5EWRhAifgeRGTB-wiOk-31" target="d5EWRhAifgeRGTB-wiOk-42" edge="1">
          <mxGeometry width="160" relative="1" as="geometry">
            <mxPoint x="380" y="195" as="sourcePoint" />
            <mxPoint x="150" y="195" as="targetPoint" />
          </mxGeometry>
        </mxCell>
        <mxCell id="d5EWRhAifgeRGTB-wiOk-45" value="&amp;lt;&amp;lt;include&amp;gt;&amp;gt;" style="html=1;verticalAlign=bottom;labelBackgroundColor=none;endArrow=open;endFill=0;dashed=1;rounded=0;exitX=0.5;exitY=1;exitDx=0;exitDy=0;entryX=0.5;entryY=0;entryDx=0;entryDy=0;" parent="d5EWRhAifgeRGTB-wiOk-54" source="d5EWRhAifgeRGTB-wiOk-31" target="d5EWRhAifgeRGTB-wiOk-44" edge="1">
          <mxGeometry width="160" relative="1" as="geometry">
            <mxPoint x="401" y="220" as="sourcePoint" />
            <mxPoint x="229" y="310" as="targetPoint" />
          </mxGeometry>
        </mxCell>
        <mxCell id="d5EWRhAifgeRGTB-wiOk-56" value="&amp;lt;&amp;lt;include&amp;gt;&amp;gt;" style="html=1;verticalAlign=bottom;labelBackgroundColor=none;endArrow=open;endFill=0;dashed=1;rounded=0;exitX=0;exitY=1;exitDx=0;exitDy=0;entryX=1;entryY=0;entryDx=0;entryDy=0;" parent="1" source="d5EWRhAifgeRGTB-wiOk-46" target="d5EWRhAifgeRGTB-wiOk-50" edge="1">
          <mxGeometry width="160" relative="1" as="geometry">
            <mxPoint x="-320" y="230" as="sourcePoint" />
            <mxPoint x="-320" y="370" as="targetPoint" />
          </mxGeometry>
        </mxCell>
        <mxCell id="d5EWRhAifgeRGTB-wiOk-72" value="Transaction Control" style="shape=umlFrame;whiteSpace=wrap;html=1;pointerEvents=0;recursiveResize=0;container=1;collapsible=0;width=160;" parent="1" vertex="1">
          <mxGeometry x="-780" y="610" width="750" height="540" as="geometry" />
        </mxCell>
        <mxCell id="d5EWRhAifgeRGTB-wiOk-55" value="Attach to a Bank Account" style="ellipse;whiteSpace=wrap;html=1;" parent="d5EWRhAifgeRGTB-wiOk-72" vertex="1">
          <mxGeometry x="15" y="220" width="140" height="70" as="geometry" />
        </mxCell>
        <mxCell id="d5EWRhAifgeRGTB-wiOk-64" value="Update Transaction" style="ellipse;whiteSpace=wrap;html=1;" parent="d5EWRhAifgeRGTB-wiOk-72" vertex="1">
          <mxGeometry x="50" y="390" width="140" height="70" as="geometry" />
        </mxCell>
        <mxCell id="d5EWRhAifgeRGTB-wiOk-67" value="&amp;lt;&amp;lt;extend&amp;gt;&amp;gt;" style="html=1;verticalAlign=bottom;labelBackgroundColor=none;endArrow=open;endFill=0;dashed=1;rounded=0;entryX=0;entryY=0;entryDx=0;entryDy=0;exitX=0.5;exitY=1;exitDx=0;exitDy=0;" parent="d5EWRhAifgeRGTB-wiOk-72" source="d5EWRhAifgeRGTB-wiOk-55" target="d5EWRhAifgeRGTB-wiOk-64" edge="1">
          <mxGeometry width="160" relative="1" as="geometry">
            <mxPoint x="555" y="100" as="sourcePoint" />
            <mxPoint x="389" y="292" as="targetPoint" />
          </mxGeometry>
        </mxCell>
        <mxCell id="d5EWRhAifgeRGTB-wiOk-61" value="Create Transaction" style="ellipse;whiteSpace=wrap;html=1;" parent="d5EWRhAifgeRGTB-wiOk-72" vertex="1">
          <mxGeometry x="220" y="80" width="140" height="70" as="geometry" />
        </mxCell>
        <mxCell id="d5EWRhAifgeRGTB-wiOk-58" value="&amp;lt;&amp;lt;extend&amp;gt;&amp;gt;" style="html=1;verticalAlign=bottom;labelBackgroundColor=none;endArrow=open;endFill=0;dashed=1;rounded=0;exitX=1;exitY=0.5;exitDx=0;exitDy=0;entryX=0;entryY=0.5;entryDx=0;entryDy=0;" parent="d5EWRhAifgeRGTB-wiOk-72" source="d5EWRhAifgeRGTB-wiOk-55" target="d5EWRhAifgeRGTB-wiOk-61" edge="1">
          <mxGeometry width="160" relative="1" as="geometry">
            <mxPoint x="435" y="170" as="sourcePoint" />
            <mxPoint x="595" y="170" as="targetPoint" />
          </mxGeometry>
        </mxCell>
        <mxCell id="d5EWRhAifgeRGTB-wiOk-59" value="Attach to a Category" style="ellipse;whiteSpace=wrap;html=1;" parent="d5EWRhAifgeRGTB-wiOk-72" vertex="1">
          <mxGeometry x="480" y="130" width="140" height="70" as="geometry" />
        </mxCell>
        <mxCell id="d5EWRhAifgeRGTB-wiOk-66" value="&amp;lt;&amp;lt;extend&amp;gt;&amp;gt;" style="html=1;verticalAlign=bottom;labelBackgroundColor=none;endArrow=open;endFill=0;dashed=1;rounded=0;entryX=0.743;entryY=0.029;entryDx=0;entryDy=0;entryPerimeter=0;exitX=0.5;exitY=1;exitDx=0;exitDy=0;" parent="d5EWRhAifgeRGTB-wiOk-72" source="d5EWRhAifgeRGTB-wiOk-59" target="d5EWRhAifgeRGTB-wiOk-64" edge="1">
          <mxGeometry width="160" relative="1" as="geometry">
            <mxPoint x="555" y="100" as="sourcePoint" />
            <mxPoint x="411" y="160" as="targetPoint" />
          </mxGeometry>
        </mxCell>
        <mxCell id="d5EWRhAifgeRGTB-wiOk-60" value="&amp;lt;&amp;lt;extend&amp;gt;&amp;gt;" style="html=1;verticalAlign=bottom;labelBackgroundColor=none;endArrow=open;endFill=0;dashed=1;rounded=0;entryX=1;entryY=0.5;entryDx=0;entryDy=0;exitX=0;exitY=0.5;exitDx=0;exitDy=0;" parent="d5EWRhAifgeRGTB-wiOk-72" source="d5EWRhAifgeRGTB-wiOk-59" target="d5EWRhAifgeRGTB-wiOk-61" edge="1">
          <mxGeometry width="160" relative="1" as="geometry">
            <mxPoint x="334" y="130" as="sourcePoint" />
            <mxPoint x="486" y="220" as="targetPoint" />
          </mxGeometry>
        </mxCell>
        <mxCell id="d5EWRhAifgeRGTB-wiOk-50" value="Control Transactions" style="ellipse;whiteSpace=wrap;html=1;" parent="d5EWRhAifgeRGTB-wiOk-72" vertex="1">
          <mxGeometry x="460" y="310" width="140" height="70" as="geometry" />
        </mxCell>
        <mxCell id="d5EWRhAifgeRGTB-wiOk-63" value="&amp;lt;&amp;lt;include&amp;gt;&amp;gt;" style="html=1;verticalAlign=bottom;labelBackgroundColor=none;endArrow=open;endFill=0;dashed=1;rounded=0;exitX=0;exitY=0.5;exitDx=0;exitDy=0;entryX=1;entryY=1;entryDx=0;entryDy=0;" parent="d5EWRhAifgeRGTB-wiOk-72" source="d5EWRhAifgeRGTB-wiOk-50" target="d5EWRhAifgeRGTB-wiOk-61" edge="1">
          <mxGeometry width="160" relative="1" as="geometry">
            <mxPoint x="835" y="95" as="sourcePoint" />
            <mxPoint x="654" y="220" as="targetPoint" />
          </mxGeometry>
        </mxCell>
        <mxCell id="d5EWRhAifgeRGTB-wiOk-65" value="&amp;lt;&amp;lt;include&amp;gt;&amp;gt;" style="html=1;verticalAlign=bottom;labelBackgroundColor=none;endArrow=open;endFill=0;dashed=1;rounded=0;exitX=0;exitY=0.5;exitDx=0;exitDy=0;entryX=1;entryY=0;entryDx=0;entryDy=0;" parent="d5EWRhAifgeRGTB-wiOk-72" source="d5EWRhAifgeRGTB-wiOk-50" target="d5EWRhAifgeRGTB-wiOk-64" edge="1">
          <mxGeometry width="160" relative="1" as="geometry">
            <mxPoint x="535" y="245" as="sourcePoint" />
            <mxPoint x="411" y="210" as="targetPoint" />
          </mxGeometry>
        </mxCell>
        <mxCell id="d5EWRhAifgeRGTB-wiOk-68" value="Delete Transaction" style="ellipse;whiteSpace=wrap;html=1;" parent="d5EWRhAifgeRGTB-wiOk-72" vertex="1">
          <mxGeometry x="270" y="450" width="140" height="70" as="geometry" />
        </mxCell>
        <mxCell id="d5EWRhAifgeRGTB-wiOk-69" value="&amp;lt;&amp;lt;include&amp;gt;&amp;gt;" style="html=1;verticalAlign=bottom;labelBackgroundColor=none;endArrow=open;endFill=0;dashed=1;rounded=0;exitX=0.5;exitY=1;exitDx=0;exitDy=0;entryX=1;entryY=0;entryDx=0;entryDy=0;" parent="d5EWRhAifgeRGTB-wiOk-72" source="d5EWRhAifgeRGTB-wiOk-50" target="d5EWRhAifgeRGTB-wiOk-68" edge="1">
          <mxGeometry width="160" relative="1" as="geometry">
            <mxPoint x="636" y="290" as="sourcePoint" />
            <mxPoint x="374" y="300" as="targetPoint" />
          </mxGeometry>
        </mxCell>
        <mxCell id="d5EWRhAifgeRGTB-wiOk-70" value="Inactivate/Activate Transaction" style="ellipse;whiteSpace=wrap;html=1;" parent="d5EWRhAifgeRGTB-wiOk-72" vertex="1">
          <mxGeometry x="620" y="460" width="140" height="70" as="geometry" />
        </mxCell>
        <mxCell id="d5EWRhAifgeRGTB-wiOk-71" value="&amp;lt;&amp;lt;include&amp;gt;&amp;gt;" style="html=1;verticalAlign=bottom;labelBackgroundColor=none;endArrow=open;endFill=0;dashed=1;rounded=0;exitX=0.5;exitY=1;exitDx=0;exitDy=0;entryX=0.5;entryY=0;entryDx=0;entryDy=0;" parent="d5EWRhAifgeRGTB-wiOk-72" source="d5EWRhAifgeRGTB-wiOk-50" target="d5EWRhAifgeRGTB-wiOk-70" edge="1">
          <mxGeometry width="160" relative="1" as="geometry">
            <mxPoint x="685" y="300" as="sourcePoint" />
            <mxPoint x="434" y="390" as="targetPoint" />
          </mxGeometry>
        </mxCell>
        <mxCell id="d5EWRhAifgeRGTB-wiOk-92" value="&amp;lt;&amp;lt;include&amp;gt;&amp;gt;" style="html=1;verticalAlign=bottom;labelBackgroundColor=none;endArrow=open;endFill=0;dashed=1;rounded=0;exitX=1;exitY=1;exitDx=0;exitDy=0;entryX=0;entryY=0;entryDx=0;entryDy=0;" parent="1" source="d5EWRhAifgeRGTB-wiOk-46" target="d5EWRhAifgeRGTB-wiOk-57" edge="1">
          <mxGeometry width="160" relative="1" as="geometry">
            <mxPoint x="-9" y="520" as="sourcePoint" />
            <mxPoint x="-151" y="810" as="targetPoint" />
          </mxGeometry>
        </mxCell>
        <mxCell id="d5EWRhAifgeRGTB-wiOk-116" value="Recurrency Control" style="shape=umlFrame;whiteSpace=wrap;html=1;pointerEvents=0;recursiveResize=0;container=1;collapsible=0;width=160;" parent="1" vertex="1">
          <mxGeometry x="280" y="505" width="500" height="545" as="geometry" />
        </mxCell>
        <mxCell id="d5EWRhAifgeRGTB-wiOk-91" value="Preview Recurrencies" style="ellipse;whiteSpace=wrap;html=1;" parent="d5EWRhAifgeRGTB-wiOk-116" vertex="1">
          <mxGeometry x="30" y="95" width="140" height="70" as="geometry" />
        </mxCell>
        <mxCell id="d5EWRhAifgeRGTB-wiOk-90" value="Create Recurrencies" style="ellipse;whiteSpace=wrap;html=1;" parent="d5EWRhAifgeRGTB-wiOk-116" vertex="1">
          <mxGeometry x="200" y="245" width="140" height="70" as="geometry" />
        </mxCell>
        <mxCell id="d5EWRhAifgeRGTB-wiOk-95" value="&amp;lt;&amp;lt;include&amp;gt;&amp;gt;" style="html=1;verticalAlign=bottom;labelBackgroundColor=none;endArrow=open;endFill=0;dashed=1;rounded=0;exitX=0;exitY=0;exitDx=0;exitDy=0;entryX=0.5;entryY=1;entryDx=0;entryDy=0;" parent="d5EWRhAifgeRGTB-wiOk-116" source="d5EWRhAifgeRGTB-wiOk-90" target="d5EWRhAifgeRGTB-wiOk-91" edge="1">
          <mxGeometry width="160" relative="1" as="geometry">
            <mxPoint x="149" y="305" as="sourcePoint" />
            <mxPoint x="231" y="205" as="targetPoint" />
          </mxGeometry>
        </mxCell>
        <mxCell id="d5EWRhAifgeRGTB-wiOk-57" value="Control Recurrencies" style="ellipse;whiteSpace=wrap;html=1;" parent="d5EWRhAifgeRGTB-wiOk-116" vertex="1">
          <mxGeometry x="20" y="365" width="140" height="70" as="geometry" />
        </mxCell>
        <mxCell id="d5EWRhAifgeRGTB-wiOk-94" value="&amp;lt;&amp;lt;include&amp;gt;&amp;gt;" style="html=1;verticalAlign=bottom;labelBackgroundColor=none;endArrow=open;endFill=0;dashed=1;rounded=0;exitX=1;exitY=0;exitDx=0;exitDy=0;entryX=0;entryY=1;entryDx=0;entryDy=0;" parent="d5EWRhAifgeRGTB-wiOk-116" source="d5EWRhAifgeRGTB-wiOk-57" target="d5EWRhAifgeRGTB-wiOk-90" edge="1">
          <mxGeometry width="160" relative="1" as="geometry">
            <mxPoint x="-191" y="15" as="sourcePoint" />
            <mxPoint x="51" y="305" as="targetPoint" />
          </mxGeometry>
        </mxCell>
        <mxCell id="d5EWRhAifgeRGTB-wiOk-93" value="Compare Recurrencies" style="ellipse;whiteSpace=wrap;html=1;" parent="d5EWRhAifgeRGTB-wiOk-116" vertex="1">
          <mxGeometry x="330" y="25" width="140" height="70" as="geometry" />
        </mxCell>
        <mxCell id="d5EWRhAifgeRGTB-wiOk-99" value="&amp;lt;&amp;lt;extend&amp;gt;&amp;gt;" style="html=1;verticalAlign=bottom;labelBackgroundColor=none;endArrow=open;endFill=0;dashed=1;rounded=0;entryX=1;entryY=0.5;entryDx=0;entryDy=0;exitX=0;exitY=0.5;exitDx=0;exitDy=0;" parent="d5EWRhAifgeRGTB-wiOk-116" source="d5EWRhAifgeRGTB-wiOk-93" target="d5EWRhAifgeRGTB-wiOk-91" edge="1">
          <mxGeometry width="160" relative="1" as="geometry">
            <mxPoint x="270" y="115" as="sourcePoint" />
            <mxPoint x="430" y="115" as="targetPoint" />
          </mxGeometry>
        </mxCell>
        <mxCell id="d5EWRhAifgeRGTB-wiOk-117" value="Delete Recurrency" style="ellipse;whiteSpace=wrap;html=1;" parent="d5EWRhAifgeRGTB-wiOk-116" vertex="1">
          <mxGeometry x="270" y="455" width="140" height="70" as="geometry" />
        </mxCell>
        <mxCell id="d5EWRhAifgeRGTB-wiOk-118" value="&amp;lt;&amp;lt;include&amp;gt;&amp;gt;" style="html=1;verticalAlign=bottom;labelBackgroundColor=none;endArrow=open;endFill=0;dashed=1;rounded=0;exitX=1;exitY=1;exitDx=0;exitDy=0;entryX=0;entryY=0;entryDx=0;entryDy=0;" parent="d5EWRhAifgeRGTB-wiOk-116" source="d5EWRhAifgeRGTB-wiOk-57" target="d5EWRhAifgeRGTB-wiOk-117" edge="1">
          <mxGeometry width="160" relative="1" as="geometry">
            <mxPoint x="149" y="385" as="sourcePoint" />
            <mxPoint x="231" y="315" as="targetPoint" />
          </mxGeometry>
        </mxCell>
        <mxCell id="d5EWRhAifgeRGTB-wiOk-119" value="Inactivate Recurency Projection" style="ellipse;whiteSpace=wrap;html=1;" parent="d5EWRhAifgeRGTB-wiOk-116" vertex="1">
          <mxGeometry x="290" y="355" width="140" height="70" as="geometry" />
        </mxCell>
        <mxCell id="d5EWRhAifgeRGTB-wiOk-120" value="&amp;lt;&amp;lt;include&amp;gt;&amp;gt;" style="html=1;verticalAlign=bottom;labelBackgroundColor=none;endArrow=open;endFill=0;dashed=1;rounded=0;exitX=1;exitY=0.5;exitDx=0;exitDy=0;entryX=0;entryY=0.5;entryDx=0;entryDy=0;" parent="d5EWRhAifgeRGTB-wiOk-116" source="d5EWRhAifgeRGTB-wiOk-57" target="d5EWRhAifgeRGTB-wiOk-119" edge="1">
          <mxGeometry width="160" relative="1" as="geometry">
            <mxPoint x="149" y="435" as="sourcePoint" />
            <mxPoint x="301" y="475" as="targetPoint" />
          </mxGeometry>
        </mxCell>
        <mxCell id="d5EWRhAifgeRGTB-wiOk-121" value="Manager" style="shape=umlActor;verticalLabelPosition=bottom;verticalAlign=top;html=1;" parent="1" vertex="1">
          <mxGeometry x="-40" y="-1140" width="30" height="60" as="geometry" />
        </mxCell>
        <mxCell id="d5EWRhAifgeRGTB-wiOk-128" value="Account Manageme&lt;span style=&quot;color: rgba(0, 0, 0, 0); font-family: monospace; font-size: 0px; text-align: start; text-wrap: nowrap;&quot;&gt;%3CmxGraphModel%3E%3Croot%3E%3CmxCell%20id%3D%220%22%2F%3E%3CmxCell%20id%3D%221%22%20parent%3D%220%22%2F%3E%3CmxCell%20id%3D%222%22%20value%3D%22Account%20Management%22%20style%3D%22shape%3DumlFrame%3BwhiteSpace%3Dwrap%3Bhtml%3D1%3BpointerEvents%3D0%3BrecursiveResize%3D0%3Bcontainer%3D1%3Bcollapsible%3D0%3Bwidth%3D160%3B%22%20vertex%3D%221%22%20parent%3D%221%22%3E%3CmxGeometry%20x%3D%22-450%22%20y%3D%22-650%22%20width%3D%22830%22%20height%3D%22400%22%20as%3D%22geometry%22%2F%3E%3C%2FmxCell%3E%3CmxCell%20id%3D%223%22%20value%3D%22Create%20Accounts%22%20style%3D%22ellipse%3BwhiteSpace%3Dwrap%3Bhtml%3D1%3B%22%20vertex%3D%221%22%20parent%3D%222%22%3E%3CmxGeometry%20x%3D%22360%22%20y%3D%22190%22%20width%3D%22140%22%20height%3D%2270%22%20as%3D%22geometry%22%2F%3E%3C%2FmxCell%3E%3CmxCell%20id%3D%224%22%20value%3D%22Update%20Accounts%22%20style%3D%22ellipse%3BwhiteSpace%3Dwrap%3Bhtml%3D1%3B%22%20vertex%3D%221%22%20parent%3D%222%22%3E%3CmxGeometry%20x%3D%2280%22%20y%3D%2240%22%20width%3D%22140%22%20height%3D%2270%22%20as%3D%22geometry%22%2F%3E%3C%2FmxCell%3E%3CmxCell%20id%3D%225%22%20value%3D%22Delete%20Users%22%20style%3D%22ellipse%3BwhiteSpace%3Dwrap%3Bhtml%3D1%3B%22%20vertex%3D%221%22%20parent%3D%222%22%3E%3CmxGeometry%20x%3D%22610%22%20y%3D%2240%22%20width%3D%22140%22%20height%3D%2270%22%20as%3D%22geometry%22%2F%3E%3C%2FmxCell%3E%3CmxCell%20id%3D%226%22%20value%3D%22Active%2FInactive%20Users%22%20style%3D%22ellipse%3BwhiteSpace%3Dwrap%3Bhtml%3D1%3B%22%20vertex%3D%221%22%20parent%3D%222%22%3E%3CmxGeometry%20x%3D%22560%22%20y%3D%22180%22%20width%3D%22140%22%20height%3D%2270%22%20as%3D%22geometry%22%2F%3E%3C%2FmxCell%3E%3C%2Froot%3E%3C%2FmxGraphModel%3E&lt;/span&gt;nt" style="shape=umlFrame;whiteSpace=wrap;html=1;pointerEvents=0;recursiveResize=0;container=1;collapsible=0;width=160;" parent="1" vertex="1">
          <mxGeometry x="-440" y="-690" width="750" height="330" as="geometry" />
        </mxCell>
        <mxCell id="d5EWRhAifgeRGTB-wiOk-123" value="Create Accounts" style="ellipse;whiteSpace=wrap;html=1;" parent="d5EWRhAifgeRGTB-wiOk-128" vertex="1">
          <mxGeometry x="360" y="220" width="140" height="70" as="geometry" />
        </mxCell>
        <mxCell id="d5EWRhAifgeRGTB-wiOk-124" value="Update Accounts" style="ellipse;whiteSpace=wrap;html=1;" parent="d5EWRhAifgeRGTB-wiOk-128" vertex="1">
          <mxGeometry x="210" y="140" width="140" height="70" as="geometry" />
        </mxCell>
        <mxCell id="d5EWRhAifgeRGTB-wiOk-126" value="Delete Users" style="ellipse;whiteSpace=wrap;html=1;" parent="d5EWRhAifgeRGTB-wiOk-128" vertex="1">
          <mxGeometry x="600" y="36" width="140" height="70" as="geometry" />
        </mxCell>
        <mxCell id="d5EWRhAifgeRGTB-wiOk-125" value="Active/Inactive Users" style="ellipse;whiteSpace=wrap;html=1;" parent="d5EWRhAifgeRGTB-wiOk-128" vertex="1">
          <mxGeometry x="27" y="120" width="140" height="70" as="geometry" />
        </mxCell>
        <mxCell id="d5EWRhAifgeRGTB-wiOk-122" value="Manage Users" style="ellipse;whiteSpace=wrap;html=1;" parent="d5EWRhAifgeRGTB-wiOk-128" vertex="1">
          <mxGeometry x="360" y="36" width="140" height="70" as="geometry" />
        </mxCell>
        <mxCell id="d5EWRhAifgeRGTB-wiOk-131" value="&amp;lt;&amp;lt;include&amp;gt;&amp;gt;" style="html=1;verticalAlign=bottom;labelBackgroundColor=none;endArrow=open;endFill=0;dashed=1;rounded=0;entryX=0;entryY=0.5;entryDx=0;entryDy=0;exitX=1;exitY=0.5;exitDx=0;exitDy=0;" parent="d5EWRhAifgeRGTB-wiOk-128" source="d5EWRhAifgeRGTB-wiOk-122" target="d5EWRhAifgeRGTB-wiOk-126" edge="1">
          <mxGeometry width="160" relative="1" as="geometry">
            <mxPoint x="360" y="200" as="sourcePoint" />
            <mxPoint x="520" y="200" as="targetPoint" />
          </mxGeometry>
        </mxCell>
        <mxCell id="d5EWRhAifgeRGTB-wiOk-132" value="&amp;lt;&amp;lt;include&amp;gt;&amp;gt;" style="html=1;verticalAlign=bottom;labelBackgroundColor=none;endArrow=open;endFill=0;dashed=1;rounded=0;entryX=0.5;entryY=0;entryDx=0;entryDy=0;exitX=0;exitY=1;exitDx=0;exitDy=0;" parent="d5EWRhAifgeRGTB-wiOk-128" source="d5EWRhAifgeRGTB-wiOk-122" target="d5EWRhAifgeRGTB-wiOk-125" edge="1">
          <mxGeometry width="160" relative="1" as="geometry">
            <mxPoint x="480" y="355" as="sourcePoint" />
            <mxPoint x="640" y="355" as="targetPoint" />
          </mxGeometry>
        </mxCell>
        <mxCell id="d5EWRhAifgeRGTB-wiOk-133" value="&amp;lt;&amp;lt;include&amp;gt;&amp;gt;" style="html=1;verticalAlign=bottom;labelBackgroundColor=none;endArrow=open;endFill=0;dashed=1;rounded=0;entryX=0.5;entryY=0;entryDx=0;entryDy=0;exitX=0.5;exitY=1;exitDx=0;exitDy=0;" parent="d5EWRhAifgeRGTB-wiOk-128" source="d5EWRhAifgeRGTB-wiOk-122" target="d5EWRhAifgeRGTB-wiOk-123" edge="1">
          <mxGeometry width="160" relative="1" as="geometry">
            <mxPoint x="459" y="380" as="sourcePoint" />
            <mxPoint x="581" y="470" as="targetPoint" />
          </mxGeometry>
        </mxCell>
        <mxCell id="d5EWRhAifgeRGTB-wiOk-135" value="&amp;lt;&amp;lt;include&amp;gt;&amp;gt;" style="html=1;verticalAlign=bottom;labelBackgroundColor=none;endArrow=open;endFill=0;dashed=1;rounded=0;entryX=0.5;entryY=0;entryDx=0;entryDy=0;exitX=0;exitY=0.5;exitDx=0;exitDy=0;" parent="d5EWRhAifgeRGTB-wiOk-128" source="d5EWRhAifgeRGTB-wiOk-122" target="d5EWRhAifgeRGTB-wiOk-124" edge="1">
          <mxGeometry width="160" relative="1" as="geometry">
            <mxPoint x="410" y="390" as="sourcePoint" />
            <mxPoint x="410" y="460" as="targetPoint" />
          </mxGeometry>
        </mxCell>
        <mxCell id="d5EWRhAifgeRGTB-wiOk-129" value="" style="endArrow=none;startArrow=none;endFill=0;startFill=0;endSize=8;html=1;verticalAlign=bottom;labelBackgroundColor=none;strokeWidth=3;rounded=0;exitX=0.5;exitY=0.5;exitDx=0;exitDy=0;exitPerimeter=0;entryX=0.5;entryY=1;entryDx=0;entryDy=0;" parent="1" source="d5EWRhAifgeRGTB-wiOk-1" target="d5EWRhAifgeRGTB-wiOk-124" edge="1">
          <mxGeometry width="160" relative="1" as="geometry">
            <mxPoint x="115" y="250" as="sourcePoint" />
            <mxPoint x="-250" y="195" as="targetPoint" />
          </mxGeometry>
        </mxCell>
        <mxCell id="d5EWRhAifgeRGTB-wiOk-130" value="" style="endArrow=none;startArrow=none;endFill=0;startFill=0;endSize=8;html=1;verticalAlign=bottom;labelBackgroundColor=none;strokeWidth=3;rounded=0;exitX=0.5;exitY=0.5;exitDx=0;exitDy=0;exitPerimeter=0;entryX=0.5;entryY=1;entryDx=0;entryDy=0;" parent="1" source="d5EWRhAifgeRGTB-wiOk-1" target="d5EWRhAifgeRGTB-wiOk-123" edge="1">
          <mxGeometry width="160" relative="1" as="geometry">
            <mxPoint x="115" y="250" as="sourcePoint" />
            <mxPoint x="180" y="-390" as="targetPoint" />
          </mxGeometry>
        </mxCell>
        <mxCell id="d5EWRhAifgeRGTB-wiOk-139" value="&amp;lt;&amp;lt;include&amp;gt;&amp;gt;" style="html=1;verticalAlign=bottom;labelBackgroundColor=none;endArrow=open;endFill=0;dashed=1;rounded=0;entryX=1;entryY=0.5;entryDx=0;entryDy=0;exitX=0;exitY=0.5;exitDx=0;exitDy=0;" parent="1" source="d5EWRhAifgeRGTB-wiOk-123" target="d5EWRhAifgeRGTB-wiOk-136" edge="1">
          <mxGeometry width="160" relative="1" as="geometry">
            <mxPoint x="-660" y="-370" as="sourcePoint" />
            <mxPoint x="-500" y="-370" as="targetPoint" />
          </mxGeometry>
        </mxCell>
        <mxCell id="d5EWRhAifgeRGTB-wiOk-141" value="&amp;lt;&amp;lt;include&amp;gt;&amp;gt;" style="html=1;verticalAlign=bottom;labelBackgroundColor=none;endArrow=open;endFill=0;dashed=1;rounded=0;exitX=1;exitY=0.5;exitDx=0;exitDy=0;entryX=0;entryY=1;entryDx=0;entryDy=0;" parent="1" source="d5EWRhAifgeRGTB-wiOk-140" target="d5EWRhAifgeRGTB-wiOk-125" edge="1">
          <mxGeometry width="160" relative="1" as="geometry">
            <mxPoint x="-660" y="-330" as="sourcePoint" />
            <mxPoint x="-500" y="-330" as="targetPoint" />
          </mxGeometry>
        </mxCell>
        <mxCell id="d5EWRhAifgeRGTB-wiOk-142" value="" style="endArrow=none;startArrow=none;endFill=0;startFill=0;endSize=8;html=1;verticalAlign=bottom;labelBackgroundColor=none;strokeWidth=3;rounded=0;entryX=1;entryY=1;entryDx=0;entryDy=0;exitX=0.5;exitY=0.5;exitDx=0;exitDy=0;exitPerimeter=0;" parent="1" source="d5EWRhAifgeRGTB-wiOk-1" target="d5EWRhAifgeRGTB-wiOk-140" edge="1">
          <mxGeometry width="160" relative="1" as="geometry">
            <mxPoint x="50" y="210" as="sourcePoint" />
            <mxPoint x="-290" y="-530" as="targetPoint" />
          </mxGeometry>
        </mxCell>
        <mxCell id="d5EWRhAifgeRGTB-wiOk-165" value="Notification Control" style="shape=umlFrame;whiteSpace=wrap;html=1;pointerEvents=0;recursiveResize=0;container=1;collapsible=0;width=160;" parent="1" vertex="1">
          <mxGeometry x="-1120" y="-780" width="570" height="560" as="geometry" />
        </mxCell>
        <mxCell id="d5EWRhAifgeRGTB-wiOk-137" value="Notification Control" style="ellipse;whiteSpace=wrap;html=1;" parent="d5EWRhAifgeRGTB-wiOk-165" vertex="1">
          <mxGeometry x="20" y="390" width="140" height="70" as="geometry" />
        </mxCell>
        <mxCell id="d5EWRhAifgeRGTB-wiOk-136" value="Generate Activation Link" style="ellipse;whiteSpace=wrap;html=1;" parent="d5EWRhAifgeRGTB-wiOk-165" vertex="1">
          <mxGeometry x="360" y="310" width="140" height="70" as="geometry" />
        </mxCell>
        <mxCell id="d5EWRhAifgeRGTB-wiOk-169" value="&amp;lt;&amp;lt;include&amp;gt;&amp;gt;" style="html=1;verticalAlign=bottom;labelBackgroundColor=none;endArrow=open;endFill=0;dashed=1;rounded=0;exitX=1;exitY=0;exitDx=0;exitDy=0;entryX=0;entryY=1;entryDx=0;entryDy=0;" parent="d5EWRhAifgeRGTB-wiOk-165" source="d5EWRhAifgeRGTB-wiOk-137" target="d5EWRhAifgeRGTB-wiOk-136" edge="1">
          <mxGeometry width="160" relative="1" as="geometry">
            <mxPoint x="220" y="220" as="sourcePoint" />
            <mxPoint x="380" y="220" as="targetPoint" />
          </mxGeometry>
        </mxCell>
        <mxCell id="d5EWRhAifgeRGTB-wiOk-140" value="Activate Account" style="ellipse;whiteSpace=wrap;html=1;" parent="d5EWRhAifgeRGTB-wiOk-165" vertex="1">
          <mxGeometry x="380" y="420" width="140" height="70" as="geometry" />
        </mxCell>
        <mxCell id="d5EWRhAifgeRGTB-wiOk-170" value="&amp;lt;&amp;lt;include&amp;gt;&amp;gt;" style="html=1;verticalAlign=bottom;labelBackgroundColor=none;endArrow=open;endFill=0;dashed=1;rounded=0;exitX=1;exitY=0.5;exitDx=0;exitDy=0;entryX=0;entryY=0.5;entryDx=0;entryDy=0;" parent="d5EWRhAifgeRGTB-wiOk-165" source="d5EWRhAifgeRGTB-wiOk-137" target="d5EWRhAifgeRGTB-wiOk-140" edge="1">
          <mxGeometry width="160" relative="1" as="geometry">
            <mxPoint x="159" y="240" as="sourcePoint" />
            <mxPoint x="351" y="180" as="targetPoint" />
          </mxGeometry>
        </mxCell>
        <mxCell id="d5EWRhAifgeRGTB-wiOk-181" value="Send Notifications" style="ellipse;whiteSpace=wrap;html=1;" parent="d5EWRhAifgeRGTB-wiOk-165" vertex="1">
          <mxGeometry x="370" y="80" width="140" height="70" as="geometry" />
        </mxCell>
        <mxCell id="d5EWRhAifgeRGTB-wiOk-183" value="&amp;lt;&amp;lt;include&amp;gt;&amp;gt;" style="html=1;verticalAlign=bottom;labelBackgroundColor=none;endArrow=open;endFill=0;dashed=1;rounded=0;exitX=0.5;exitY=0;exitDx=0;exitDy=0;entryX=0;entryY=1;entryDx=0;entryDy=0;" parent="d5EWRhAifgeRGTB-wiOk-165" source="d5EWRhAifgeRGTB-wiOk-137" target="d5EWRhAifgeRGTB-wiOk-181" edge="1">
          <mxGeometry width="160" relative="1" as="geometry">
            <mxPoint x="210" y="280" as="sourcePoint" />
            <mxPoint x="370" y="280" as="targetPoint" />
          </mxGeometry>
        </mxCell>
        <mxCell id="d5EWRhAifgeRGTB-wiOk-166" value="" style="endArrow=none;startArrow=none;endFill=0;startFill=0;endSize=8;html=1;verticalAlign=bottom;labelBackgroundColor=none;strokeWidth=3;rounded=0;exitX=0.5;exitY=0;exitDx=0;exitDy=0;entryX=0.5;entryY=0.5;entryDx=0;entryDy=0;entryPerimeter=0;" parent="1" source="d5EWRhAifgeRGTB-wiOk-122" target="d5EWRhAifgeRGTB-wiOk-121" edge="1">
          <mxGeometry width="160" relative="1" as="geometry">
            <mxPoint x="65" y="220" as="sourcePoint" />
            <mxPoint x="-290" y="-530" as="targetPoint" />
          </mxGeometry>
        </mxCell>
        <mxCell id="d5EWRhAifgeRGTB-wiOk-167" value="Serveless Worker" style="shape=umlActor;verticalLabelPosition=bottom;verticalAlign=top;html=1;" parent="1" vertex="1">
          <mxGeometry x="-1310" y="-365" width="30" height="60" as="geometry" />
        </mxCell>
        <mxCell id="d5EWRhAifgeRGTB-wiOk-168" value="" style="endArrow=none;startArrow=none;endFill=0;startFill=0;endSize=8;html=1;verticalAlign=bottom;labelBackgroundColor=none;strokeWidth=3;rounded=0;exitX=0;exitY=0.5;exitDx=0;exitDy=0;entryX=0.5;entryY=0.5;entryDx=0;entryDy=0;entryPerimeter=0;" parent="1" source="d5EWRhAifgeRGTB-wiOk-137" target="d5EWRhAifgeRGTB-wiOk-167" edge="1">
          <mxGeometry width="160" relative="1" as="geometry">
            <mxPoint x="-40" y="-600" as="sourcePoint" />
            <mxPoint x="-40" y="-810" as="targetPoint" />
          </mxGeometry>
        </mxCell>
        <mxCell id="d5EWRhAifgeRGTB-wiOk-172" value="Tracing" style="shape=umlFrame;whiteSpace=wrap;html=1;pointerEvents=0;recursiveResize=0;container=1;collapsible=0;width=160;" parent="1" vertex="1">
          <mxGeometry x="450" y="-1110" width="490" height="370" as="geometry" />
        </mxCell>
        <mxCell id="d5EWRhAifgeRGTB-wiOk-173" value="Tracing Analisys" style="ellipse;whiteSpace=wrap;html=1;" parent="d5EWRhAifgeRGTB-wiOk-172" vertex="1">
          <mxGeometry x="20" y="200" width="140" height="70" as="geometry" />
        </mxCell>
        <mxCell id="d5EWRhAifgeRGTB-wiOk-175" value="public events visualization" style="ellipse;whiteSpace=wrap;html=1;" parent="d5EWRhAifgeRGTB-wiOk-172" vertex="1">
          <mxGeometry x="270" y="270" width="140" height="70" as="geometry" />
        </mxCell>
        <mxCell id="d5EWRhAifgeRGTB-wiOk-176" value="&amp;lt;&amp;lt;include&amp;gt;&amp;gt;" style="html=1;verticalAlign=bottom;labelBackgroundColor=none;endArrow=open;endFill=0;dashed=1;rounded=0;exitX=1;exitY=1;exitDx=0;exitDy=0;entryX=0;entryY=0;entryDx=0;entryDy=0;" parent="d5EWRhAifgeRGTB-wiOk-172" source="d5EWRhAifgeRGTB-wiOk-173" target="d5EWRhAifgeRGTB-wiOk-175" edge="1">
          <mxGeometry width="160" relative="1" as="geometry">
            <mxPoint x="50" y="270" as="sourcePoint" />
            <mxPoint x="210" y="270" as="targetPoint" />
          </mxGeometry>
        </mxCell>
        <mxCell id="d5EWRhAifgeRGTB-wiOk-177" value="private events visualization" style="ellipse;whiteSpace=wrap;html=1;" parent="d5EWRhAifgeRGTB-wiOk-172" vertex="1">
          <mxGeometry x="280" y="110" width="140" height="70" as="geometry" />
        </mxCell>
        <mxCell id="d5EWRhAifgeRGTB-wiOk-178" value="&amp;lt;&amp;lt;include&amp;gt;&amp;gt;" style="html=1;verticalAlign=bottom;labelBackgroundColor=none;endArrow=open;endFill=0;dashed=1;rounded=0;exitX=1;exitY=0.5;exitDx=0;exitDy=0;entryX=0;entryY=0.5;entryDx=0;entryDy=0;" parent="d5EWRhAifgeRGTB-wiOk-172" source="d5EWRhAifgeRGTB-wiOk-173" target="d5EWRhAifgeRGTB-wiOk-177" edge="1">
          <mxGeometry width="160" relative="1" as="geometry">
            <mxPoint x="150" y="219" as="sourcePoint" />
            <mxPoint x="300" y="291" as="targetPoint" />
          </mxGeometry>
        </mxCell>
        <mxCell id="d5EWRhAifgeRGTB-wiOk-179" value="Alerts" style="ellipse;whiteSpace=wrap;html=1;" parent="d5EWRhAifgeRGTB-wiOk-172" vertex="1">
          <mxGeometry x="20" y="70" width="140" height="70" as="geometry" />
        </mxCell>
        <mxCell id="d5EWRhAifgeRGTB-wiOk-180" value="&amp;lt;&amp;lt;include&amp;gt;&amp;gt;" style="html=1;verticalAlign=bottom;labelBackgroundColor=none;endArrow=open;endFill=0;dashed=1;rounded=0;exitX=0.5;exitY=0;exitDx=0;exitDy=0;entryX=0.5;entryY=1;entryDx=0;entryDy=0;" parent="d5EWRhAifgeRGTB-wiOk-172" source="d5EWRhAifgeRGTB-wiOk-173" target="d5EWRhAifgeRGTB-wiOk-179" edge="1">
          <mxGeometry width="160" relative="1" as="geometry">
            <mxPoint x="170" y="195" as="sourcePoint" />
            <mxPoint x="290" y="155" as="targetPoint" />
          </mxGeometry>
        </mxCell>
        <mxCell id="d5EWRhAifgeRGTB-wiOk-174" value="" style="endArrow=none;startArrow=none;endFill=0;startFill=0;endSize=8;html=1;verticalAlign=bottom;labelBackgroundColor=none;strokeWidth=3;rounded=0;exitX=0;exitY=0.5;exitDx=0;exitDy=0;entryX=0.5;entryY=0.5;entryDx=0;entryDy=0;entryPerimeter=0;" parent="1" source="d5EWRhAifgeRGTB-wiOk-173" target="d5EWRhAifgeRGTB-wiOk-121" edge="1">
          <mxGeometry width="160" relative="1" as="geometry">
            <mxPoint y="-644" as="sourcePoint" />
            <mxPoint x="-15" y="-1100" as="targetPoint" />
          </mxGeometry>
        </mxCell>
        <mxCell id="d5EWRhAifgeRGTB-wiOk-182" value="&amp;lt;&amp;lt;extend&amp;gt;&amp;gt;" style="html=1;verticalAlign=bottom;labelBackgroundColor=none;endArrow=open;endFill=0;dashed=1;rounded=0;exitX=1;exitY=0;exitDx=0;exitDy=0;entryX=0;entryY=0.5;entryDx=0;entryDy=0;" parent="1" source="d5EWRhAifgeRGTB-wiOk-181" target="d5EWRhAifgeRGTB-wiOk-179" edge="1">
          <mxGeometry width="160" relative="1" as="geometry">
            <mxPoint x="-550" y="-750" as="sourcePoint" />
            <mxPoint x="-390" y="-750" as="targetPoint" />
          </mxGeometry>
        </mxCell>
      </root>
    </mxGraphModel>
  </diagram>
</mxfile>
